<?xml version="1.0" encoding="UTF-8"?>
<!DOCTYPE svg PUBLIC "-//W3C//DTD SVG 1.1//EN" "http://www.w3.org/Graphics/SVG/1.1/DTD/svg11.dtd">
<svg xmlns="http://www.w3.org/2000/svg" version="1.1" width="462px" height="280px" style="shape-rendering:geometricPrecision; text-rendering:geometricPrecision; image-rendering:optimizeQuality; fill-rule:evenodd; clip-rule:evenodd" xmlns:xlink="http://www.w3.org/1999/xlink">
<g><path style="opacity:1" fill="#fab80d" d="M 204.5,-0.5 C 214.833,-0.5 225.167,-0.5 235.5,-0.5C 255.438,5.44857 267.438,18.7819 271.5,39.5C 270.833,39.8333 270.167,40.1667 269.5,40.5C 260.696,36.8235 252.863,38.1569 246,44.5C 243.167,48.9943 242.834,53.661 245,58.5C 248.5,67.3333 254.667,73.5 263.5,77C 301.31,79.9711 330.477,97.1378 351,128.5C 356.203,138.61 359.703,149.277 361.5,160.5C 360.998,161.521 360.332,161.688 359.5,161C 347.77,141.612 330.603,130.779 308,128.5C 302.249,129.049 296.749,130.215 291.5,132C 289.034,122.914 284.867,114.748 279,107.5C 285.872,156.089 267.205,191.089 223,212.5C 222.5,234.831 222.333,257.164 222.5,279.5C 218.5,279.5 214.5,279.5 210.5,279.5C 209.523,258.546 209.189,237.546 209.5,216.5C 204.541,216.735 199.708,216.735 195,216.5C 194.5,237.497 194.333,258.497 194.5,279.5C 190.5,279.5 186.5,279.5 182.5,279.5C 182.5,258.5 182.5,237.5 182.5,216.5C 168.203,214.851 155.537,209.518 144.5,200.5C 160.18,176.938 167.014,150.938 165,122.5C 162.56,140.487 156.893,157.487 148,173.5C 141.929,182.738 134.096,190.071 124.5,195.5C 115.087,188.701 108.587,179.701 105,168.5C 93.1401,129.663 98.8068,93.663 122,60.5C 141.795,29.5411 169.295,9.20773 204.5,-0.5 Z M 235.5,14.5 C 242.456,15.9188 244.123,19.7521 240.5,26C 233,27.8333 230.167,25 232,17.5C 233.145,16.3636 234.312,15.3636 235.5,14.5 Z M 299.5,139.5 C 302.966,140.109 303.966,141.942 302.5,145C 299.763,146.08 298.096,145.246 297.5,142.5C 297.942,141.261 298.609,140.261 299.5,139.5 Z"/></g>
<g><path style="opacity:1" fill="#edc147" d="M 326.5,279.5 C 323.833,279.5 321.167,279.5 318.5,279.5C 318.18,268.585 318.513,257.752 319.5,247C 316.183,246.502 312.85,246.335 309.5,246.5C 309.5,257.5 309.5,268.5 309.5,279.5C 307.167,279.5 304.833,279.5 302.5,279.5C 302.5,267.833 302.5,256.167 302.5,244.5C 295.418,243.625 289.418,240.625 284.5,235.5C 287.521,232.314 290.354,228.98 293,225.5C 295.526,221.807 296.86,217.807 297,213.5C 292.654,220.512 286.988,226.179 280,230.5C 270.949,220.657 267.282,208.99 269,195.5C 269.956,189.257 272.289,183.59 276,178.5C 283.324,171.517 289.491,163.684 294.5,155C 293.846,153.013 292.513,151.68 290.5,151C 287.774,150.818 285.107,150.318 282.5,149.5C 289.442,135.008 300.776,129.842 316.5,134C 349.296,147.085 364.13,171.252 361,206.5C 357.124,226.04 345.791,239.04 327,245.5C 326.5,256.828 326.333,268.162 326.5,279.5 Z M 299.5,139.5 C 298.609,140.261 297.942,141.261 297.5,142.5C 298.096,145.246 299.763,146.08 302.5,145C 303.966,141.942 302.966,140.109 299.5,139.5 Z"/></g>
</svg>
